<mxfile host="app.diagrams.net" agent="Mozilla/5.0 (Windows NT 10.0; Win64; x64) AppleWebKit/537.36 (KHTML, like Gecko) Chrome/135.0.0.0 Safari/537.36 Trailer/92.3.3240.25" version="26.2.14" pages="2">
  <diagram name="Diagrama de Casos de Uso" id="TiQTh0qylciPLxBTwBEb">
    <mxGraphModel dx="718" dy="1078" grid="1" gridSize="10" guides="1" tooltips="1" connect="1" arrows="1" fold="1" page="1" pageScale="1" pageWidth="827" pageHeight="1169" math="0" shadow="0">
      <root>
        <mxCell id="0" />
        <mxCell id="1" parent="0" />
        <mxCell id="JkF2Axb19Cpev5O186Le-1" value="Cliente" style="shape=umlActor;verticalLabelPosition=bottom;verticalAlign=top;" vertex="1" parent="1">
          <mxGeometry x="60" y="120" width="30" height="60" as="geometry" />
        </mxCell>
        <mxCell id="JkF2Axb19Cpev5O186Le-2" value="Administrador" style="shape=umlActor;verticalLabelPosition=bottom;verticalAlign=top;" vertex="1" parent="1">
          <mxGeometry x="600" y="120" width="30" height="60" as="geometry" />
        </mxCell>
        <mxCell id="JkF2Axb19Cpev5O186Le-3" value="Criar conta" style="ellipse;whiteSpace=wrap;html=1;aspect=fixed;" vertex="1" parent="1">
          <mxGeometry x="200" y="80" width="120" height="40" as="geometry" />
        </mxCell>
        <mxCell id="JkF2Axb19Cpev5O186Le-4" value="Fazer login" style="ellipse;whiteSpace=wrap;html=1;aspect=fixed;" vertex="1" parent="1">
          <mxGeometry x="200" y="130" width="120" height="40" as="geometry" />
        </mxCell>
        <mxCell id="JkF2Axb19Cpev5O186Le-5" value="Pesquisar produtos" style="ellipse;whiteSpace=wrap;html=1;aspect=fixed;" vertex="1" parent="1">
          <mxGeometry x="200" y="180" width="120" height="40" as="geometry" />
        </mxCell>
        <mxCell id="JkF2Axb19Cpev5O186Le-6" value="Adicionar ao carrinho" style="ellipse;whiteSpace=wrap;html=1;aspect=fixed;" vertex="1" parent="1">
          <mxGeometry x="200" y="230" width="120" height="40" as="geometry" />
        </mxCell>
        <mxCell id="JkF2Axb19Cpev5O186Le-7" value="Finalizar compra" style="ellipse;whiteSpace=wrap;html=1;aspect=fixed;" vertex="1" parent="1">
          <mxGeometry x="200" y="280" width="120" height="40" as="geometry" />
        </mxCell>
        <mxCell id="JkF2Axb19Cpev5O186Le-8" value="Acompanhar pedido" style="ellipse;whiteSpace=wrap;html=1;aspect=fixed;" vertex="1" parent="1">
          <mxGeometry x="200" y="330" width="120" height="40" as="geometry" />
        </mxCell>
        <mxCell id="JkF2Axb19Cpev5O186Le-9" value="Gerenciar produtos" style="ellipse;whiteSpace=wrap;html=1;aspect=fixed;" vertex="1" parent="1">
          <mxGeometry x="400" y="120" width="140" height="40" as="geometry" />
        </mxCell>
        <mxCell id="JkF2Axb19Cpev5O186Le-10" value="Gerenciar pedidos" style="ellipse;whiteSpace=wrap;html=1;aspect=fixed;" vertex="1" parent="1">
          <mxGeometry x="400" y="170" width="140" height="40" as="geometry" />
        </mxCell>
        <mxCell id="JkF2Axb19Cpev5O186Le-11" value="Visualizar relatórios" style="ellipse;whiteSpace=wrap;html=1;aspect=fixed;" vertex="1" parent="1">
          <mxGeometry x="400" y="220" width="140" height="40" as="geometry" />
        </mxCell>
        <mxCell id="JkF2Axb19Cpev5O186Le-12" style="endArrow=none;" edge="1" parent="1" source="JkF2Axb19Cpev5O186Le-1" target="JkF2Axb19Cpev5O186Le-3">
          <mxGeometry relative="1" as="geometry" />
        </mxCell>
        <mxCell id="JkF2Axb19Cpev5O186Le-13" style="endArrow=none;" edge="1" parent="1" source="JkF2Axb19Cpev5O186Le-1" target="JkF2Axb19Cpev5O186Le-4">
          <mxGeometry relative="1" as="geometry" />
        </mxCell>
        <mxCell id="JkF2Axb19Cpev5O186Le-14" style="endArrow=none;" edge="1" parent="1" source="JkF2Axb19Cpev5O186Le-1" target="JkF2Axb19Cpev5O186Le-5">
          <mxGeometry relative="1" as="geometry" />
        </mxCell>
        <mxCell id="JkF2Axb19Cpev5O186Le-15" style="endArrow=none;" edge="1" parent="1" source="JkF2Axb19Cpev5O186Le-1" target="JkF2Axb19Cpev5O186Le-6">
          <mxGeometry relative="1" as="geometry" />
        </mxCell>
        <mxCell id="JkF2Axb19Cpev5O186Le-16" style="endArrow=none;" edge="1" parent="1" source="JkF2Axb19Cpev5O186Le-1" target="JkF2Axb19Cpev5O186Le-7">
          <mxGeometry relative="1" as="geometry" />
        </mxCell>
        <mxCell id="JkF2Axb19Cpev5O186Le-17" style="endArrow=none;" edge="1" parent="1" source="JkF2Axb19Cpev5O186Le-1" target="JkF2Axb19Cpev5O186Le-8">
          <mxGeometry relative="1" as="geometry" />
        </mxCell>
        <mxCell id="JkF2Axb19Cpev5O186Le-18" style="endArrow=none;" edge="1" parent="1" source="JkF2Axb19Cpev5O186Le-2" target="JkF2Axb19Cpev5O186Le-9">
          <mxGeometry relative="1" as="geometry" />
        </mxCell>
        <mxCell id="JkF2Axb19Cpev5O186Le-19" style="endArrow=none;" edge="1" parent="1" source="JkF2Axb19Cpev5O186Le-2" target="JkF2Axb19Cpev5O186Le-10">
          <mxGeometry relative="1" as="geometry" />
        </mxCell>
        <mxCell id="JkF2Axb19Cpev5O186Le-20" style="endArrow=none;" edge="1" parent="1" source="JkF2Axb19Cpev5O186Le-2" target="JkF2Axb19Cpev5O186Le-11">
          <mxGeometry relative="1" as="geometry" />
        </mxCell>
      </root>
    </mxGraphModel>
  </diagram>
  <diagram id="XzkPXqAd_p_2uWjewewI" name="Página-2">
    <mxGraphModel dx="597" dy="1154" grid="0" gridSize="10" guides="1" tooltips="1" connect="1" arrows="1" fold="1" page="0" pageScale="1" pageWidth="827" pageHeight="1169" math="0" shadow="0">
      <root>
        <mxCell id="0" />
        <mxCell id="1" parent="0" />
      </root>
    </mxGraphModel>
  </diagram>
</mxfile>
